# xmcd
#
# Track frame offsets:
#	150
#	28230
#	49590
#	73187
#	98665
#	111557
#	129782
#	149167
#	166245
#	182195
#	198270
#	212232
#	227742
#	242590
#
# Disc length: 3509 seconds
#
# Revision: 2
# Processed by: cddbd v1.5.1PL0 Copyright (c) Steve Scherf et al.
# Submitted via: EasyCDDAExtractor 8.0.2.1
#
DISCID=cf0db30e
DTITLE=Three Degrees - The Three Degrees
DYEAR=1900
DGENRE=Oldies
TTITLE0=Tie U Up
TTITLE1=Make It Easy On Yourself
TTITLE2=After The Night Is Over
TTITLE3=Are You That Kind Of Guy
TTITLE4=When Will I See You Again
TTITLE5=Midnight Train
TTITLE6=Dirty Ol' Man
TTITLE7=Nigal Namida
TTITLE8=T.S.O.P. (The Sound Of Philadelphia)
TTITLE9=I'm Doin' Fine Now
TTITLE10=I'm Going To Miss You
TTITLE11=I'll Be Around
TTITLE12=Do Right Woman, Do Right Man
TTITLE13=Let's Get It On
EXTD=Dolby Surround
EXTT0=
EXTT1=
EXTT2=
EXTT3=
EXTT4=
EXTT5=
EXTT6=
EXTT7=
EXTT8=
EXTT9=
EXTT10=
EXTT11=
EXTT12=
EXTT13=
PLAYORDER=
